<svg xmlns="http://www.w3.org/2000/svg" viewBox="0 0 520 440" fill="none" role="img" aria-label="Education and learning illustration">
  <defs>
    <linearGradient id="eduGlowA" x1="0" y1="0" x2="1" y2="1">
      <stop offset="0%" stop-color="#1e40af" stop-opacity="0.45"/>
      <stop offset="100%" stop-color="#3b82f6" stop-opacity="0.12"/>
    </linearGradient>
    <linearGradient id="eduGlowB" x1="1" y1="0" x2="0" y2="1">
      <stop offset="0%" stop-color="#1e40af" stop-opacity="0.35"/>
      <stop offset="100%" stop-color="#2563eb" stop-opacity="0.1"/>
    </linearGradient>
    <linearGradient id="eduLaptop" x1="0" y1="0" x2="1" y2="1">
      <stop offset="0%" stop-color="#2563eb"/>
      <stop offset="100%" stop-color="#1e3a8a"/>
    </linearGradient>
    <linearGradient id="eduScreen" x1="0" y1="0" x2="1" y2="1">
      <stop offset="0%" stop-color="#0f172a"/>
      <stop offset="100%" stop-color="#1e293b"/>
    </linearGradient>
    <filter id="eduShadow">
      <feDropShadow dx="0" dy="14" stdDeviation="16" flood-color="#2563eb" flood-opacity="0.28"/>
    </filter>
  </defs>

  <circle cx="120" cy="88" r="68" fill="url(#eduGlowA)"/>
  <circle cx="400" cy="96" r="54" fill="url(#eduGlowB)"/>
  <circle cx="430" cy="320" r="40" fill="url(#eduGlowA)"/>

  <ellipse cx="260" cy="372" rx="170" ry="20" fill="#0f172a" fill-opacity="0.55"/>
  <path d="M90 350 H430" stroke="#1e40af" stroke-opacity="0.55" stroke-width="2"/>
  <rect x="78" y="338" width="12" height="12" rx="2" stroke="#f97316" stroke-width="2"/>
  <rect x="430" y="338" width="12" height="12" rx="2" stroke="#1e40af" stroke-width="2"/>

  <g filter="url(#eduShadow)">
    <rect x="118" y="118" width="284" height="188" rx="18" fill="url(#eduLaptop)" stroke="#93c5fd" stroke-opacity="0.45"/>
    <rect x="136" y="136" width="248" height="148" rx="12" fill="url(#eduScreen)"/>
    <rect x="228" y="126" width="64" height="6" rx="3" fill="#1e3a8a"/>

    <rect x="154" y="158" width="88" height="56" rx="8" fill="#1e3a8a" stroke="#2563eb" stroke-opacity="0.35"/>
    <polyline points="164,198 180,178 194,186 210,164 226,172" fill="none" stroke="#34d399" stroke-width="3" stroke-linecap="round" stroke-linejoin="round"/>
    <circle cx="164" cy="198" r="3" fill="#3b82f6"/>

    <rect x="254" y="158" width="58" height="56" rx="8" fill="#1e3a8a" stroke="#2563eb" stroke-opacity="0.35"/>
    <circle cx="283" cy="186" r="18" fill="none" stroke="#3b82f6" stroke-width="6" stroke-dasharray="40 56" transform="rotate(-90 283 186)"/>
    <circle cx="283" cy="186" r="6" fill="#fb923c"/>

    <rect x="322" y="158" width="50" height="56" rx="8" fill="#1e3a8a" stroke="#2563eb" stroke-opacity="0.35"/>
    <rect x="332" y="196" width="8" height="18" rx="2" fill="#60a5fa"/>
    <rect x="344" y="186" width="8" height="28" rx="2" fill="#34d399"/>
    <rect x="356" y="176" width="8" height="38" rx="2" fill="#3b82f6"/>

    <rect x="154" y="224" width="218" height="44" rx="8" fill="#1e293b" stroke="#1e3a8a"/>
    <text x="166" y="244" fill="#93c5fd" font-family="ui-monospace, monospace" font-size="10">learning.push(skill);</text>
    <text x="166" y="258" fill="#34d399" font-family="ui-monospace, monospace" font-size="10">graduate();</text>

    <rect x="118" y="306" width="284" height="14" rx="4" fill="#1e40af"/>
  </g>

  <g transform="translate(52 148)">
    <path d="M28 8 L52 20 L52 48 C52 58 28 68 28 68 C28 68 4 58 4 48 L4 20 Z" fill="#1e40af" stroke="#93c5fd" stroke-opacity="0.5"/>
    <circle cx="28" cy="36" r="10" fill="#fbbf24"/>
    <rect x="22" y="44" width="12" height="4" rx="2" fill="#fde68a"/>
  </g>

  <g transform="translate(418 156)">
    <rect x="0" y="0" width="54" height="68" rx="10" fill="#1e3a8a" stroke="#3b82f6" stroke-opacity="0.45"/>
    <rect x="10" y="12" width="34" height="6" rx="3" fill="#60a5fa"/>
    <rect x="10" y="24" width="34" height="6" rx="3" fill="#2563eb" fill-opacity="0.7"/>
    <rect x="10" y="36" width="26" height="6" rx="3" fill="#2563eb" fill-opacity="0.5"/>
    <rect x="10" y="48" width="30" height="6" rx="3" fill="#2563eb" fill-opacity="0.35"/>
  </g>

  <g transform="translate(388 72)">
    <circle cx="20" cy="20" r="20" fill="#1e40af" fill-opacity="0.2" stroke="#1e40af" stroke-opacity="0.5"/>
    <text x="12" y="25" fill="#dbeafe" font-family="ui-monospace, monospace" font-size="12">&lt;/&gt;</text>
  </g>

  <circle cx="88" cy="300" r="5" fill="#1e40af"/>
  <circle cx="468" cy="248" r="4" fill="#f97316"/>
</svg>
