<svg xmlns="http://www.w3.org/2000/svg" viewBox="0 0 520 440" fill="none" role="img" aria-label="Developer desk setup illustration">
  <defs>
    <linearGradient id="setupGlow" x1="0" y1="0" x2="1" y2="1">
      <stop offset="0%" stop-color="#2563eb" stop-opacity="0.5"/>
      <stop offset="100%" stop-color="#2563eb" stop-opacity="0.12"/>
    </linearGradient>
    <linearGradient id="deskTop" x1="0" y1="0" x2="1" y2="0">
      <stop offset="0%" stop-color="#1e3a8a"/>
      <stop offset="50%" stop-color="#1e3a8a"/>
      <stop offset="100%" stop-color="#1e3a8a"/>
    </linearGradient>
    <linearGradient id="monitorFrame" x1="0" y1="0" x2="0" y2="1">
      <stop offset="0%" stop-color="#3b82f6"/>
      <stop offset="100%" stop-color="#2563eb"/>
    </linearGradient>
    <linearGradient id="monitorScreen" x1="0" y1="0" x2="1" y2="1">
      <stop offset="0%" stop-color="#f8fafc"/>
      <stop offset="100%" stop-color="#e2e8f0"/>
    </linearGradient>
    <filter id="setupShadow">
      <feDropShadow dx="0" dy="10" stdDeviation="12" flood-color="#2563eb" flood-opacity="0.28"/>
    </filter>
  </defs>

  <circle cx="130" cy="80" r="70" fill="url(#setupGlow)"/>
  <circle cx="390" cy="95" r="54" fill="url(#setupGlow)"/>

  <ellipse cx="260" cy="360" rx="190" ry="24" fill="#94a3b8" fill-opacity="0.25"/>
  <path d="M70 318 H450" stroke="#f97316" stroke-width="2" stroke-linecap="round"/>
  <path d="M90 318 H430" stroke="#1e40af" stroke-opacity="0.45" stroke-width="1"/>

  <g filter="url(#setupShadow)">
    <rect x="148" y="72" width="224" height="148" rx="18" fill="url(#monitorFrame)" stroke="#3b82f6" stroke-opacity="0.5"/>
    <rect x="164" y="88" width="192" height="112" rx="10" fill="url(#monitorScreen)"/>
    <rect x="238" y="80" width="44" height="6" rx="3" fill="#cbd5e1"/>
    <text x="178" y="118" fill="#1e40af" font-family="ui-monospace, monospace" font-size="11">// frontend dev</text>
    <text x="178" y="138" fill="#2563eb" font-family="ui-monospace, monospace" font-size="11">const role =</text>
    <text x="178" y="158" fill="#059669" font-family="ui-monospace, monospace" font-size="11">&apos;engineer&apos;;</text>
    <text x="178" y="178" fill="#ea580c" font-family="ui-monospace, monospace" font-size="11">deploy(ui);</text>
    <rect x="248" y="220" width="24" height="56" rx="4" fill="#2563eb"/>
    <path d="M170 276 H350" stroke="#2563eb" stroke-width="8" stroke-linecap="round"/>
  </g>

  <g transform="translate(72 250)">
    <rect x="0" y="0" width="150" height="96" rx="14" fill="#1e3a8a" stroke="#3b82f6" stroke-opacity="0.45"/>
    <rect x="12" y="12" width="126" height="58" rx="8" fill="#0f172a"/>
    <text x="22" y="34" fill="#60a5fa" font-family="ui-monospace, monospace" font-size="10">git commit -m</text>
    <text x="22" y="50" fill="#34d399" font-family="ui-monospace, monospace" font-size="10">&apos;experience&apos;</text>
    <rect x="12" y="74" width="126" height="10" rx="3" fill="#1e40af"/>
  </g>

  <g transform="translate(330 248)">
    <rect x="0" y="24" width="58" height="72" rx="12" fill="#2563eb"/>
    <rect x="10" y="12" width="38" height="16" rx="8" fill="#60a5fa"/>
    <circle cx="29" cy="58" r="10" fill="#fbbf24"/>
  </g>

  <rect x="248" y="300" width="24" height="18" rx="4" fill="#1e293b" stroke="#f97316" stroke-width="1.5"/>
  <circle cx="72" cy="180" r="4" fill="#1e40af"/>
  <circle cx="456" cy="220" r="5" fill="#1e40af"/>
</svg>
