<svg xmlns="http://www.w3.org/2000/svg" viewBox="0 0 520 440" fill="none" role="img" aria-label="Developer desk setup illustration">
  <defs>
    <linearGradient id="setupGlow" x1="0" y1="0" x2="1" y2="1">
      <stop offset="0%" stop-color="#a855f7" stop-opacity="0.5"/>
      <stop offset="100%" stop-color="#a855f7" stop-opacity="0.12"/>
    </linearGradient>
    <linearGradient id="deskTop" x1="0" y1="0" x2="1" y2="0">
      <stop offset="0%" stop-color="#6b21a8"/>
      <stop offset="50%" stop-color="#4c1d95"/>
      <stop offset="100%" stop-color="#6b21a8"/>
    </linearGradient>
    <linearGradient id="monitorFrame" x1="0" y1="0" x2="0" y2="1">
      <stop offset="0%" stop-color="#7c3aed"/>
      <stop offset="100%" stop-color="#581c87"/>
    </linearGradient>
    <linearGradient id="monitorScreen" x1="0" y1="0" x2="1" y2="1">
      <stop offset="0%" stop-color="#3b0764"/>
      <stop offset="100%" stop-color="#581c87"/>
    </linearGradient>
    <filter id="setupShadow">
      <feDropShadow dx="0" dy="10" stdDeviation="12" flood-color="#7c3aed" flood-opacity="0.28"/>
    </filter>
  </defs>

  <circle cx="130" cy="80" r="70" fill="url(#setupGlow)"/>
  <circle cx="390" cy="95" r="54" fill="url(#setupGlow)"/>

  <ellipse cx="260" cy="360" rx="190" ry="24" fill="#3b0764" fill-opacity="0.55"/>
  <path d="M70 318 H450" stroke="#f97316" stroke-width="2" stroke-linecap="round"/>
  <path d="M90 318 H430" stroke="#ec4899" stroke-opacity="0.45" stroke-width="1"/>

  <g filter="url(#setupShadow)">
    <rect x="148" y="72" width="224" height="148" rx="18" fill="url(#monitorFrame)" stroke="#8b5cf6" stroke-opacity="0.5"/>
    <rect x="164" y="88" width="192" height="112" rx="10" fill="url(#monitorScreen)"/>
    <rect x="238" y="80" width="44" height="6" rx="3" fill="#3b0764"/>
    <text x="178" y="118" fill="#c4b5fd" font-family="ui-monospace, monospace" font-size="11">// frontend dev</text>
    <text x="178" y="138" fill="#f472b6" font-family="ui-monospace, monospace" font-size="11">const role =</text>
    <text x="178" y="158" fill="#34d399" font-family="ui-monospace, monospace" font-size="11">&apos;engineer&apos;;</text>
    <text x="178" y="178" fill="#fb923c" font-family="ui-monospace, monospace" font-size="11">deploy(ui);</text>
    <rect x="248" y="220" width="24" height="56" rx="4" fill="#7c3aed"/>
    <path d="M170 276 H350" stroke="#a855f7" stroke-width="8" stroke-linecap="round"/>
  </g>

  <g transform="translate(72 250)">
    <rect x="0" y="0" width="150" height="96" rx="14" fill="#6b21a8" stroke="#8b5cf6" stroke-opacity="0.45"/>
    <rect x="12" y="12" width="126" height="58" rx="8" fill="#3b0764"/>
    <text x="22" y="34" fill="#a78bfa" font-family="ui-monospace, monospace" font-size="10">git commit -m</text>
    <text x="22" y="50" fill="#34d399" font-family="ui-monospace, monospace" font-size="10">&apos;experience&apos;</text>
    <rect x="12" y="74" width="126" height="10" rx="3" fill="#5b21b6"/>
  </g>

  <g transform="translate(330 248)">
    <rect x="0" y="24" width="58" height="72" rx="12" fill="#7c3aed"/>
    <rect x="10" y="12" width="38" height="16" rx="8" fill="#a78bfa"/>
    <circle cx="29" cy="58" r="10" fill="#fbbf24"/>
  </g>

  <rect x="248" y="300" width="24" height="18" rx="4" fill="#581c87" stroke="#f97316" stroke-width="1.5"/>
  <circle cx="72" cy="180" r="4" fill="#ec4899"/>
  <circle cx="456" cy="220" r="5" fill="#ec4899"/>
</svg>
