<svg xmlns="http://www.w3.org/2000/svg" viewBox="0 0 520 440" fill="none" role="img" aria-label="Modern monitor and laptop illustration">
  <defs>
    <linearGradient id="orbitA" x1="0" y1="0" x2="1" y2="1">
      <stop offset="0%" stop-color="#ec4899" stop-opacity="0.35"/>
      <stop offset="100%" stop-color="#8b5cf6" stop-opacity="0.08"/>
    </linearGradient>
    <linearGradient id="orbitB" x1="1" y1="1" x2="0" y2="0">
      <stop offset="0%" stop-color="#ec4899" stop-opacity="0.28"/>
      <stop offset="100%" stop-color="#a855f7" stop-opacity="0.08"/>
    </linearGradient>
    <linearGradient id="deviceBody" x1="0" y1="0" x2="1" y2="1">
      <stop offset="0%" stop-color="#5b21b6"/>
      <stop offset="100%" stop-color="#6b21a8"/>
    </linearGradient>
    <linearGradient id="deviceScreen" x1="0" y1="0" x2="1" y2="1">
      <stop offset="0%" stop-color="#3b0764"/>
      <stop offset="100%" stop-color="#581c87"/>
    </linearGradient>
    <filter id="deviceGlow">
      <feDropShadow dx="0" dy="16" stdDeviation="18" flood-color="#a855f7" flood-opacity="0.3"/>
    </filter>
  </defs>

  <circle cx="260" cy="220" r="150" stroke="#8b5cf6" stroke-opacity="0.12" stroke-width="1.5" stroke-dasharray="8 10"/>
  <circle cx="260" cy="220" r="118" stroke="#ec4899" stroke-opacity="0.1" stroke-width="1"/>

  <circle cx="110" cy="120" r="48" fill="url(#orbitA)"/>
  <circle cx="410" cy="300" r="56" fill="url(#orbitB)"/>

  <g filter="url(#deviceGlow)">
    <rect x="156" y="86" width="208" height="138" rx="20" fill="url(#deviceBody)" stroke="#a78bfa" stroke-opacity="0.55"/>
    <rect x="174" y="104" width="172" height="102" rx="12" fill="url(#deviceScreen)"/>
    <circle cx="260" cy="96" r="4" fill="#ec4899"/>
    <text x="188" y="132" fill="#f472b6" font-family="ui-monospace, monospace" font-size="12">while (learning) {</text>
    <text x="200" y="152" fill="#34d399" font-family="ui-monospace, monospace" font-size="12">build();</text>
    <text x="200" y="172" fill="#fb923c" font-family="ui-monospace, monospace" font-size="12">ship();</text>
    <text x="188" y="192" fill="#c4b5fd" font-family="ui-monospace, monospace" font-size="12">}</text>
    <rect x="228" y="224" width="64" height="8" rx="4" fill="#7c3aed"/>
  </g>

  <g transform="translate(96 268) rotate(-8)">
    <rect x="0" y="0" width="132" height="88" rx="14" fill="#7c3aed" stroke="#c4b5fd" stroke-opacity="0.35"/>
    <rect x="12" y="12" width="108" height="52" rx="8" fill="#3b0764"/>
    <text x="22" y="34" fill="#a78bfa" font-family="ui-monospace, monospace" font-size="10">npm run dev</text>
    <text x="22" y="50" fill="#34d399" font-family="ui-monospace, monospace" font-size="10">ready</text>
    <rect x="12" y="68" width="108" height="8" rx="2" fill="#6d28d9"/>
  </g>

  <g transform="translate(318 272) rotate(10)">
    <rect x="0" y="0" width="118" height="78" rx="14" fill="#6b21a8" stroke="#8b5cf6" stroke-opacity="0.4"/>
    <rect x="12" y="12" width="94" height="44" rx="8" fill="#3b0764"/>
    <text x="22" y="32" fill="#f472b6" font-family="ui-monospace, monospace" font-size="10">React + Next</text>
    <text x="22" y="48" fill="#ec4899" font-family="ui-monospace, monospace" font-size="10">portfolio</text>
    <rect x="12" y="60" width="94" height="8" rx="2" fill="#5b21b6"/>
  </g>

  <path d="M120 350 C180 330, 340 330, 400 350" stroke="#f97316" stroke-opacity="0.55" stroke-width="2" fill="none"/>
  <rect x="104" y="338" width="12" height="12" rx="2" stroke="#ec4899" stroke-width="2"/>
  <rect x="404" y="338" width="12" height="12" rx="2" stroke="#ec4899" stroke-width="2"/>
</svg>
