<?xml version="1.0" encoding="utf-8"?>
<!-- Generator: Adobe Illustrator 23.0.2, SVG Export Plug-In . SVG Version: 6.00 Build 0)  -->
<svg version="1.1" id="Layer_1" xmlns="http://www.w3.org/2000/svg" xmlns:xlink="http://www.w3.org/1999/xlink" x="0px" y="0px"
	 viewBox="0 0 641.2 194.8" style="enable-background:new 0 0 641.2 194.8;" xml:space="preserve">
<style type="text/css">
	.st0{fill:#57AB27;}
	.st1{fill:#908F8F;}
	.st2{fill:#8F8E8E;}
	.st3{fill:#8E8D8D;}
</style>
<path class="st0" d="M48.2,96.8c0-11.5,0-23,0-34.5c0-9.5,4.6-14.1,14.1-14.1c31.3,0,62.7,0,94,0c21.5,0,37.2,15.4,37.6,37
	c0.2,15.3,0.1,30.7,0,46c-0.1,8.6-4.9,13.8-12.4,13.8c-7.7,0-12.2-5.2-12.2-13.8c0-14.7,0-29.3,0-44c0-10.2-4.4-14.4-14.7-14.5
	c-2,0-4,0-6,0c-11.2,0-15.5,4.2-15.5,15.3c0,15.2,0.1,30.3,0,45.5c0,6-4.3,10.6-9.9,11.4c-6.3,0.9-12-2.4-13.7-8.2
	c-0.5-1.9-0.5-4-0.5-5.9c0-14.7,0-29.3,0-44c0-9.2-4.6-13.9-13.7-14c-3.2,0-6.3-0.1-9.5,0c-8.4,0.2-12.9,4.7-13,13.1
	c-0.1,15.3,0,30.7-0.1,46c0,7.3-4.2,12.3-10.4,13.1c-7.8,0.9-13.9-4.4-14-12.6C48.1,120.4,48.2,108.6,48.2,96.8z"/>
<path class="st1" d="M513.1,103.7c12.7-11.1,24.5-21.1,35.9-31.5c3.7-3.4,7.4-5,12.5-4.7c7.1,0.4,14.3,0.1,21.4,0.1
	c0.7,1.8-0.8,2.1-1.6,2.8c-8.9,7.8-17.7,15.7-26.8,23.2c-3,2.5-2.6,4.1-0.3,6.8c11.7,13.2,23.2,26.6,34.8,39.9
	c1,1.2,2.6,2.1,2.8,4.5c-8,0-15.9,0-23.8,0c-1.9,0-2.7-1.8-3.8-3c-8.3-9.5-16.7-19-24.9-28.6c-2.4-2.8-4-3.2-6.8-0.5
	c-4.3,4.2-8.7,8.3-13.5,11.9c-4.5,3.4-6.5,7.2-6.1,13c0.5,8.3,1.3,7.2-6.8,7.3c-12.7,0.1-12.7,0-12.7-12.6c0-26.3,0.1-52.6-0.1-79
	c0-4.2,1.3-5.7,5.4-5.3c3.3,0.3,6.7,0.3,10,0c3.5-0.3,4.5,1,4.5,4.5c-0.2,15-0.1,30-0.1,45C513.1,99.1,513.1,100.7,513.1,103.7z"/>
<path class="st2" d="M442.4,144.9c-10.5,0-21,0.1-31.5,0c-15.3-0.1-27.8-12.8-27.9-28.1c0-6.2,0-12.3,0-18.5
	c0-18.3,11.5-30.7,29.9-31.1c21.1-0.5,42.3-0.1,63.5-0.2c3.2,0,4,1.2,3.9,4.1c-0.2,3.8-0.3,7.7,0,11.5c0.3,3.7-1.3,4.4-4.6,4.3
	c-20-0.1-40-0.1-60-0.1c-9.7,0-12.7,3.1-12.7,12.9c0,4.7,0,9.3,0,14c0,8.4,3.4,11.8,11.7,11.9c20,0,40,0.2,60-0.1
	c4.7-0.1,6.1,1.4,5.6,5.9c-0.5,4.3,1.7,9.8-0.9,12.5c-2.7,2.8-8.2,0.9-12.5,0.9C458.7,145,450.6,144.9,442.4,144.9z"/>
<path class="st3" d="M240.1,106.3c0-11.2,0.2-22.3-0.1-33.5c-0.1-4.1,0.9-5.4,5.2-5.3c20.6,0.2,41.3,0.1,61.9,0.1
	c16.8,0,29.4,12.2,29.8,29.1c0.3,14.8,0,29.6,0.1,44.5c0,2.7-0.7,3.9-3.6,3.8c-4.2-0.2-8.3-0.2-12.5,0c-3.2,0.2-3.9-1.1-3.8-4.1
	c0.1-14,0.1-28,0-42c0-8.3-3.6-12-11.8-12c-14-0.1-28,0.1-42-0.1c-3.3,0-4.2,1.1-4.2,4.3c0.1,16.3-0.1,32.6,0.2,49
	c0.1,4.1-1.3,5.3-5.1,4.9c-4.6-0.5-10.7,2.1-13.3-1.1c-2.3-2.7-0.8-8.6-0.8-13C240,122.6,240.1,114.5,240.1,106.3z"/>
<path class="st2" d="M226.7,67.7c0.1,24.6,0.1,49.2,0.3,73.8c0,2.2-0.5,3.5-3,3.4c-4.7-0.1-9.3-0.1-14,0c-2.6,0.1-3-1.2-3-3.4
	c0.1-24.6,0.1-49.2,0.2-73.8C213.7,67.7,220.2,67.7,226.7,67.7z"/>
<path class="st1" d="M369.7,67.7c0.1,24.6,0.1,49.3,0.3,73.9c0,2.3-0.8,3.5-3.2,3.2c-0.2,0-0.3,0-0.5,0c-5.1-0.2-11.6,2-15-0.9
	c-3.3-2.8-1-9.4-1-14.3c-0.1-20.7,0.1-41.3,0.2-62C356.8,67.7,363.3,67.7,369.7,67.7z"/>
<path class="st0" d="M226.7,67.7c-6.5,0-13,0-19.5,0c-0.1-5.5,0-10.9-0.2-16.4c-0.1-2.2,0.5-3.4,3-3.3c4.6,0.1,9.3,0.1,13.9,0
	c2.4-0.1,3.1,1,3.1,3.3C226.8,56.8,226.8,62.3,226.7,67.7z"/>
<path class="st0" d="M369.7,67.7c-6.4,0-12.9,0-19.3,0c-0.1-5.5-0.1-11-0.3-16.4c-0.1-2.4,0.8-3.4,3.2-3.2c0.2,0,0.3,0,0.5,0
	C371.1,47.3,371.1,47.4,369.7,67.7z"/>
</svg>
