<?xml version="1.0" encoding="UTF-8" standalone="no"?>
<svg
   xmlns:dc="http://purl.org/dc/elements/1.1/"
   xmlns:cc="http://creativecommons.org/ns#"
   xmlns:rdf="http://www.w3.org/1999/02/22-rdf-syntax-ns#"
   xmlns:svg="http://www.w3.org/2000/svg"
   xmlns="http://www.w3.org/2000/svg"
   viewBox="0 0 88.189598 34.759997"
   height="34.759998"
   width="88.189598"
   xml:space="preserve"
   id="svg2"
   version="1.1"><metadata
     id="metadata8"><rdf:RDF><cc:Work
         rdf:about=""><dc:format>image/svg+xml</dc:format><dc:type
           rdf:resource="http://purl.org/dc/dcmitype/StillImage" /><dc:title></dc:title></cc:Work></rdf:RDF></metadata><defs
     id="defs6" /><g
     style="fill:#4a5568"
     transform="matrix(1.3333333,0,0,-1.3333333,-30.419733,1042.42)"
     id="g10"><g
       style="fill:#4a5568"
       transform="scale(0.1)"
       id="g12"><path
         id="path14"
         style="fill:#b3b3b3;fill-opacity:1;fill-rule:nonzero;stroke:none"
         d="m 873.117,7639.82 h 4.141 c 1.73,-0.02 2.89,-0.02 4.031,-0.93 0.801,-0.67 1.43,-1.7 1.43,-3.2 0,-2.49 -1.821,-3.35 -2.551,-3.57 l 2.879,-5.28 h -2.777 l -2.575,4.82 h -2.168 v -4.82 h -2.41 z m 2.41,-2.09 v -4.07 h 0.852 c 0.82,0 1.141,0.02 1.598,0.04 0.531,0.02 2.281,0.11 2.281,2 0,0.28 -0.02,1.24 -1.031,1.75 -0.516,0.26 -1.137,0.28 -2.579,0.28 h -1.121" /><path
         id="path16"
         style="fill:#b3b3b3;fill-opacity:1;fill-rule:nonzero;stroke:none"
         d="m 865.008,7633.33 c 0,-6.77 5.508,-12.28 12.281,-12.28 6.77,0 12.281,5.51 12.281,12.28 0,6.77 -5.511,12.28 -12.281,12.28 -6.773,0 -12.281,-5.51 -12.281,-12.28 z m 2.078,0 c 0,5.62 4.57,10.2 10.203,10.2 5.617,0 10.199,-4.58 10.199,-10.2 0,-5.62 -4.582,-10.2 -10.199,-10.2 -5.633,0 -10.203,4.58 -10.203,10.2" /><path
         id="path18"
         style="fill:#b3b3b3;fill-opacity:1;fill-rule:nonzero;stroke:none"
         d="m 322.996,7760.27 v -80.08 c 0,-19.67 -16.008,-35.68 -35.68,-35.68 -19.675,0 -35.699,16.01 -35.699,35.68 v 80.08 h -23.469 v -80.08 c 0,-32.61 26.551,-59.15 59.168,-59.15 32.61,0 59.153,26.54 59.153,59.15 v 80.08 h -23.473" /><path
         id="path20"
         style="fill:#b3b3b3;fill-opacity:1;fill-rule:nonzero;stroke:none"
         d="m 803.047,7702.81 c -9.598,0 -17.399,7.8 -17.399,17.39 0,9.61 7.801,17.42 17.399,17.42 h 20.473 v 23.48 h -20.473 c -22.539,0 -40.879,-18.35 -40.879,-40.9 0,-22.53 18.34,-40.86 40.879,-40.86 v 0.01 h 14.129 c 9.59,0 17.402,-7.81 17.402,-17.42 0,-9.6 -7.812,-17.41 -17.402,-17.41 h -55.399 v -23.47 h 55.399 c 22.531,0 40.871,18.34 40.871,40.88 0,22.55 -18.34,40.89 -40.871,40.89 l -14.129,-0.01" /><path
         id="path22"
         style="fill:#b3b3b3;fill-opacity:1;fill-rule:nonzero;stroke:none"
         d="m 417.746,7762.71 h -38.879 v 55.44 h -23.469 v -133.18 c 0,-36.01 29.301,-65.31 65.309,-65.31 38.621,0 70.031,31.42 70.031,70.05 0,40.25 -32.742,73 -72.992,73 z m 2.961,-119.58 c -23.07,0 -41.84,18.77 -41.84,41.84 v 54.27 h 38.879 c 27.301,0 49.524,-22.22 49.524,-49.53 0,-25.68 -20.891,-46.58 -46.563,-46.58" /><path
         id="path24"
         style="fill:#b3b3b3;fill-opacity:1;fill-rule:nonzero;stroke:none"
         d="m 606.219,7737.62 c 18.711,0 33.937,-15.21 33.937,-33.91 v -25.22 c 0,-31.66 25.77,-57.42 57.442,-57.42 12.691,0 24.429,4.14 33.937,11.15 v -8.3 c 0,-23.71 -19.289,-43 -42.996,-43 h -5.25 v -23.47 h 5.25 c 36.66,0 66.477,29.81 66.477,66.47 v 136.38 h -23.481 v -81.81 c 0,-18.72 -15.219,-33.95 -33.937,-33.95 -18.731,0 -33.969,15.23 -33.969,33.95 v 25.22 c 0,31.64 -25.75,57.39 -57.41,57.39 v -0.03 0.02 h -37.121 c -22.543,0 -40.871,-18.35 -40.871,-40.9 0,-22.53 18.328,-40.86 40.871,-40.86 v 0.01 h 23.761 c 9.586,0 17.391,-7.81 17.391,-17.41 0,-9.61 -7.805,-17.42 -17.391,-17.42 h -40 c -18.082,0 -32.8,14.71 -32.8,32.78 v 82.98 h -23.473 v -82.98 c 0,-31.02 25.254,-56.25 56.273,-56.25 h 40 c 22.528,0 40.856,18.34 40.856,40.89 0,22.54 -18.328,40.87 -40.856,40.87 h -23.761 c -9.59,0 -17.399,7.8 -17.399,17.39 0,9.61 7.809,17.42 17.399,17.42 h 37.121 v -0.01 0.02" /></g></g></svg>